<svg xmlns="http://www.w3.org/2000/svg" viewBox="0 0 35 35" class="icon icon--burger-menu" aria-hidden="true" role="img">
    <path fill="white" class="firstline" d="M1.5,9.02h32c0.83,0,1.5-0.67,1.5-1.5s-0.67-1.5-1.5-1.5h-32C0.67,6.02,0,6.69,0,7.52S0.67,9.02,1.5,9.02z"></path>
    <path fill="white" class="secondline" d="M33.5,16.02h-32c-0.83,0-1.5,0.67-1.5,1.5s0.67,1.5,1.5,1.5h32c0.83,0,1.5-0.67,1.5-1.5S34.33,16.02,33.5,16.02z"></path>
    <path fill="white" class="thirdline" d="M33.5,26.02h-32c-0.83,0-1.5,0.67-1.5,1.5s0.67,1.5,1.5,1.5h32c0.83,0,1.5-0.67,1.5-1.5S34.33,26.02,33.5,26.02z"></path>
</svg>