<svg
    class="icon icon icon--ard-footer"
    xmlns="http://www.w3.org/2000/svg"
    viewBox="0 0 375.35 150"
    role="img"
    aria-hidden="true"
>
    <path fill="white"
        d="M321.31,96.8v-27l-12,4.4v-9l36.1-13v36Zm10.4-65.6a44,44,0,0,0-36,18.7l6.4,4.4a36,36,0,0,1,29.5-15.5c19.8,0,35.5,16.2,35.5,36.1s-15.7,36.1-35.5,36.1a35.86,35.86,0,0,1-29.4-15.5l-6.5,4.5a43.31,43.31,0,0,0,35.7,18.7,43.75,43.75,0,0,0,.3-87.5m-55.5,23.6c13,0,19.8,6.9,19.8,19.9,0,13.4-7.3,20.4-21.1,20.4-3.6,0-7.2-.1-10.3-.2H263V55h.2c1.1,0,2.2,0,3.6-.1,2.3-.1,5.1-.1,9.4-.1m-.5,33.4c8.1,0,11.8-4.2,11.8-13.2s-3.9-13.4-11.8-13.4c-1.8,0-3.5,0-4.6.1V88a31.74,31.74,0,0,0,4.6.2M221.81,95h-8.9l-2.6-8.2h-15.1l-2.6,8.2h-8.1l13.7-40h10v.1Zm-13.7-15-3.9-12.2c-.6-2.1-1.1-3.8-1.5-5.3a44.44,44.44,0,0,1-1.5,5.2L197.31,80Zm49.6,15h-9.6l-9-15.3h-4.5V95h-8V55h.2c.7,0,1.8,0,3.2-.1,2.8-.1,6.6-.1,10.8-.1,9.5,0,14.5,4.2,14.5,12.2a11.32,11.32,0,0,1-8.1,11.3c.6.8,1.3,1.9,1.9,2.9Zm-23.1-22h5.5c4.5,0,6.8-1.9,6.8-5.7s-2.1-5.7-6.6-5.7c-3,0-5.1.1-5.7.1V73ZM26.91,74.6h-2.7l-3.6,13.8c-.3,1.3-.5,2.5-.7,3.8h0c-.2-1.3-.6-2.8-.9-4.1l-3.9-13.5h-2.8L8.51,87.9a32.9,32.9,0,0,0-.9,4.3h-.1c-.2-1.4-.5-2.7-.9-4.4L3.11,74.6h-3L5.51,95H9l3.8-13.4a28.37,28.37,0,0,0,.6-3.1h.1a23.76,23.76,0,0,0,.7,3.1L18,95h3.5Zm5.6.6a1.8,1.8,0,1,0-1.8,1.8A1.79,1.79,0,0,0,32.51,75.2ZM32,95V80h-2.7V95Zm11.8-15.3c-3-.3-4.5,1.8-5.2,3.8h-.1a23.8,23.8,0,0,0,.3-3.6h-2.6v15h2.7v-6c0-4.8,1.5-7.1,4.7-6.6Zm15.7.3a13.58,13.58,0,0,0-2.9-.3c-3.9,0-5.9,1.9-5.9,4.3,0,5.2,7,3.5,7,6.8,0,1.4-1.1,2.2-3.2,2.2a12.17,12.17,0,0,1-3.5-.6l-.2,2.4a18.7,18.7,0,0,0,3.5.4c4,0,6.2-2.1,6.2-4.6,0-5.2-7.1-3.6-7.1-6.9,0-1.2,1-2,2.9-2a9.93,9.93,0,0,1,3,.5Zm7.3-4.8A1.8,1.8,0,1,0,65,77,1.79,1.79,0,0,0,66.81,75.2ZM66.41,95V80h-2.7V95Zm16.5,0V84.6c0-2.8-1.2-4.9-4.5-4.9a5.56,5.56,0,0,0-5.3,3.4H73a17.2,17.2,0,0,0,.2-3.2h-2.6v15h2.7V87.7c0-3.4,1.8-5.9,4.3-5.9,2,0,2.6,1.3,2.6,3.4V95Zm15.9,0V73h-2.7v7a22.86,22.86,0,0,0-2.5-.2c-4.9,0-7.8,3.2-7.8,8.4,0,4.4,1.8,7.1,5.5,7.1a5.12,5.12,0,0,0,5-3.4h.1a15.64,15.64,0,0,0-.2,3h2.6Zm-2.7-7.9c0,3.1-1.6,5.9-4.1,5.9-2.3,0-3.3-1.8-3.3-5.1,0-4.3,1.9-6,4.7-6a12.41,12.41,0,0,1,2.7.3Zm24.3,7.9V73h-2.7v7a22.86,22.86,0,0,0-2.5-.2c-4.9,0-7.8,3.2-7.8,8.4,0,4.4,1.8,7.1,5.5,7.1a5.12,5.12,0,0,0,5-3.4h.1a15.64,15.64,0,0,0-.2,3h2.6Zm-2.7-7.9c0,3.1-1.6,5.9-4.1,5.9-2.3,0-3.3-1.8-3.3-5.1,0-4.3,1.9-6,4.7-6a12.41,12.41,0,0,1,2.7.3Zm17.5,5.2a14.14,14.14,0,0,1-4.4.8c-3.2,0-4.7-1.7-4.6-5.4H136a16.18,16.18,0,0,0,.1-1.8c0-3.4-1.8-6.2-5.9-6.2-4.3,0-6.8,3.4-6.8,7.9,0,5.3,2.5,7.7,7.1,7.7a14.4,14.4,0,0,0,5.1-.9Zm-9.1-6.5c.3-2.6,1.8-4,3.7-4,2.1,0,3.4,1.4,3.4,4Zm16.1-10.6a1.8,1.8,0,1,0-1.8,1.8A1.79,1.79,0,0,0,142.21,75.2Zm-.4,19.8V80h-2.7V95Zm16.5,0V84.6c0-2.8-1.2-4.9-4.5-4.9a5.56,5.56,0,0,0-5.3,3.4h-.1a17.2,17.2,0,0,0,.2-3.2H146v15h2.7V87.7c0-3.4,1.8-5.9,4.3-5.9,2,0,2.6,1.3,2.6,3.4V95Zm11.9-15a13.58,13.58,0,0,0-2.9-.3c-3.9,0-5.9,1.9-5.9,4.3,0,5.2,7,3.5,7,6.8,0,1.4-1.1,2.2-3.2,2.2a12.17,12.17,0,0,1-3.5-.6l-.2,2.4a18.7,18.7,0,0,0,3.5.4c4,0,6.2-2.1,6.2-4.6,0-5.2-7.1-3.6-7.1-6.9,0-1.2,1-2,2.9-2a9.93,9.93,0,0,1,3,.5Zm7.3,13.4a1.9,1.9,0,1,0-1.9,1.9A1.9,1.9,0,0,0,177.51,93.4Z"
    ></path>
</svg>