<svg
    version="1.1"
    xmlns="http://www.w3.org/2000/svg"
    role="img"
    xmlns:xlink="http://www.w3.org/1999/xlink"
    x="0px"
    y="0px"
    viewBox="0 0 96 96"
    class="icon icon--live-stream"
    enable-background="new 0 0 96 96"
    xml:space="preserve"
>
    <title>abspielen</title>
    <g>
    <path fill="white"
        d="M35.8,27.8c0.5,0,1.1,0.1,1.5,0.4L70.2,48L37.3,67.8c-0.9,0.5-2.1,0.5-3,0c-0.9-0.5-1.5-1.5-1.5-2.6V30.9c0-0.8,0.3-1.6,0.9-2.2S34.9,27.8,35.8,27.8z"
    ></path>
    <path fill="white"
        d="M48,84.3C28,84.3,11.7,68,11.7,48S28,11.7,48,11.7S84.3,28,84.3,48S68,84.3,48,84.3z M48,14.6c-18.4,0-33.4,15-33.4,33.4s15,33.4,33.4,33.4s33.4-15,33.4-33.4S66.4,14.6,48,14.6z"
    ></path>
    </g>
</svg>